<svg width="15" height="17" viewBox="0 0 15 17" fill="none" xmlns="http://www.w3.org/2000/svg">
<g clip-path="url(#clip0_1_221)">
<path d="M5.33999 16.4049L7.48284 10.1682L1.85427 10.1504C1.6157 10.1504 1.42856 9.95899 1.42856 9.71582C1.42856 9.61234 1.46284 9.52512 1.5307 9.4379L6.47856 3.23586C7.29499 2.22842 8.11141 1.20325 8.94499 0.161076C9.09784 -0.0310983 9.35284 -0.0480983 9.53999 0.0908582C9.6757 0.212815 9.72713 0.40351 9.6757 0.577945L7.51642 6.83173L13.145 6.84947C13.3836 6.84947 13.5707 7.0409 13.5707 7.28408C13.5707 7.38755 13.5364 7.47477 13.4857 7.54425C11.9043 9.6286 10.2371 11.6789 8.5707 13.747C7.75427 14.7545 6.93784 15.7619 6.0707 16.8396C5.91784 17.0303 5.66284 17.048 5.4757 16.909C5.32213 16.7701 5.27142 16.5786 5.33999 16.4049Z" fill="white"/>
<path d="M4.42143 13.9873C4.62571 14.1056 4.71071 14.3584 4.59143 14.5601C4.47214 14.7627 4.21571 14.8469 4.01143 14.7287C2.78286 14.0716 1.77571 13.1122 1.07571 11.9495C0.392857 10.8039 0 9.49045 0 8.09349C0 6.34175 0.614286 4.70827 1.65571 3.41184C2.69714 2.11466 4.18214 1.15453 5.90571 0.750967C6.12714 0.699228 6.36643 0.834489 6.41786 1.07027C6.46929 1.28905 6.33214 1.52484 6.09357 1.57584C4.55786 1.92914 3.24357 2.78801 2.32143 3.93366C1.4 5.07932 0.853571 6.54427 0.853571 8.09349C0.853571 9.3234 1.195 10.5023 1.80929 11.5297C2.44071 12.5571 3.32857 13.416 4.42071 13.9881L4.42143 13.9873ZM10.6871 2.27431C10.485 2.15605 10.4007 1.90327 10.5186 1.70075C10.6364 1.49823 10.8893 1.41397 11.0914 1.53223C12.3043 2.19005 13.2814 3.16792 13.9557 4.29805C14.6286 5.44445 15 6.75936 15 8.14301C15 9.91323 14.3764 11.5659 13.3321 12.8646C12.2879 14.1632 10.805 15.1241 9.08643 15.5121C8.86786 15.5624 8.63143 15.4109 8.58143 15.1914C8.53071 14.9726 8.68214 14.7361 8.90143 14.6858C10.4343 14.3488 11.7486 13.4884 12.675 12.342C13.6014 11.1779 14.1579 9.71071 14.1579 8.14301C14.1579 6.91162 13.8207 5.74823 13.2307 4.73562C12.6243 3.72449 11.765 2.86414 10.6871 2.27431Z" fill="white"/>
</g>
<defs>
<clipPath id="clip0_1_221">
<rect width="15" height="17" fill="white"/>
</clipPath>
</defs>
</svg>
