<svg width="15" height="15" viewBox="0 0 15 15" fill="none" xmlns="http://www.w3.org/2000/svg">
<path d="M14.625 0H12.375C12.1679 0 12 0.167893 12 0.375V14.625C12 14.8321 12.1679 15 12.375 15H14.625C14.8321 15 15 14.8321 15 14.625V0.375C15 0.167893 14.8321 0 14.625 0Z" fill="white"/>
<path d="M8.625 4.5H6.375C6.16789 4.5 6 4.66789 6 4.875V14.625C6 14.8321 6.16789 15 6.375 15H8.625C8.83211 15 9 14.8321 9 14.625V4.875C9 4.66789 8.83211 4.5 8.625 4.5Z" fill="white"/>
<path d="M2.625 9H0.375C0.167893 9 0 9.16789 0 9.375V14.625C0 14.8321 0.167893 15 0.375 15H2.625C2.83211 15 3 14.8321 3 14.625V9.375C3 9.16789 2.83211 9 2.625 9Z" fill="white"/>
</svg>
