<svg width="15" height="15" viewBox="0 0 15 15" fill="none" xmlns="http://www.w3.org/2000/svg">
<path d="M6.05325 0H0.375C0.167893 0 0 0.167893 0 0.375V6.05325C0 6.26036 0.167893 6.42825 0.375 6.42825H6.05325C6.26036 6.42825 6.42825 6.26036 6.42825 6.05325V0.375C6.42825 0.167893 6.26036 0 6.05325 0Z" fill="#47851E"/>
<path d="M14.625 0H8.94672C8.73961 0 8.57172 0.167893 8.57172 0.375V6.05325C8.57172 6.26036 8.73961 6.42825 8.94672 6.42825H14.625C14.8321 6.42825 15 6.26036 15 6.05325V0.375C15 0.167893 14.8321 0 14.625 0Z" fill="#47851E"/>
<path d="M14.625 8.57175H8.94672C8.73961 8.57175 8.57172 8.73964 8.57172 8.94675V14.625C8.57172 14.8321 8.73961 15 8.94672 15H14.625C14.8321 15 15 14.8321 15 14.625V8.94675C15 8.73964 14.8321 8.57175 14.625 8.57175Z" fill="#47851E"/>
<path d="M6.05325 8.57175H0.375C0.167893 8.57175 0 8.73964 0 8.94675V14.625C0 14.8321 0.167893 15 0.375 15H6.05325C6.26036 15 6.42825 14.8321 6.42825 14.625V8.94675C6.42825 8.73964 6.26036 8.57175 6.05325 8.57175Z" fill="#47851E"/>
</svg>
