<svg width="15" height="15" viewBox="0 0 15 15" fill="none" xmlns="http://www.w3.org/2000/svg">
<g clip-path="url(#clip0_1_251)">
<path fill-rule="evenodd" clip-rule="evenodd" d="M13.23 8.235C13.2615 7.995 13.2848 7.755 13.2848 7.5C13.2848 7.245 13.2615 7.005 13.2308 6.765L14.8575 5.5275C15.0038 5.415 15.0428 5.2125 14.9498 5.0475L13.4078 2.4525C13.3155 2.2875 13.1078 2.2275 12.9375 2.2875L11.0175 3.0375C10.617 2.7375 10.185 2.49 9.71476 2.3025L9.42226 0.315C9.39751 0.135 9.23551 0 9.04276 0H5.95951C5.76676 0 5.60476 0.135 5.58151 0.315L5.28901 2.3025C4.81876 2.49 4.38676 2.745 3.98551 3.0375L2.06551 2.2875C1.88851 2.22 1.68826 2.2875 1.59526 2.4525L0.0532577 5.0475C-0.0464923 5.2125 -0.000742316 5.415 0.146258 5.5275L1.77301 6.765C1.74226 7.005 1.71901 7.2525 1.71901 7.5C1.71901 7.7475 1.74151 7.995 1.77301 8.235L0.145508 9.4725C-0.000742305 9.585 -0.0389923 9.7875 0.0532577 9.9525L1.59526 12.5475C1.68826 12.7125 1.89601 12.7725 2.06551 12.7125L3.98551 11.9625C4.38676 12.2625 4.81801 12.51 5.28901 12.6975L5.58151 14.685C5.60476 14.865 5.76676 15 5.95951 15H9.04351C9.23626 15 9.39826 14.865 9.42151 14.685L9.71401 12.6975C10.185 12.51 10.617 12.255 11.0175 11.9625L12.9375 12.7125C13.1145 12.78 13.3155 12.7125 13.4078 12.5475L14.9498 9.9525C15.0428 9.7875 15.0038 9.585 14.8575 9.4725L13.23 8.235ZM7.50151 10.125C6.01351 10.125 4.80301 8.9475 4.80301 7.5C4.80301 6.0525 6.01351 4.875 7.50151 4.875C8.98951 4.875 10.2 6.0525 10.2 7.5C10.2 8.9475 8.98951 10.125 7.50151 10.125Z" fill="white"/>
</g>
<defs>
<clipPath id="clip0_1_251">
<rect width="15" height="15" fill="white"/>
</clipPath>
</defs>
</svg>
